<svg width="10" height="10" viewBox="0 0 10 10"><path d="M4.22,0H5.78a.47.47,0,0,1,.47.47V3.75H8a.39.39,0,0,1,.28.67l-3,3a.38.38,0,0,1-.54,0l-3-3A.39.39,0,0,1,2,3.75H3.75V.47A.47.47,0,0,1,4.22,0ZM10,7.34V9.53a.47.47,0,0,1-.47.47H.47A.47.47,0,0,1,0,9.53V7.34a.46.46,0,0,1,.47-.46H3.33l1,1a1,1,0,0,0,1.42,0l1-1H9.53A.46.46,0,0,1,10,7.34ZM7.58,9.06a.4.4,0,0,0-.39-.39.39.39,0,0,0-.39.39.38.38,0,0,0,.39.39A.39.39,0,0,0,7.58,9.06Zm1.25,0a.4.4,0,0,0-.39-.39.39.39,0,0,0-.39.39.38.38,0,0,0,.39.39A.39.39,0,0,0,8.83,9.06Z" fill="#fff"/></svg>